<svg width="8" height="14" viewBox="0 0 8 14" fill="none" xmlns="http://www.w3.org/2000/svg">
<path fill-rule="evenodd" clip-rule="evenodd" d="M6.81238 13.7501C6.66466 13.7502 6.51838 13.721 6.38195 13.6644C6.24552 13.6078 6.12162 13.5247 6.01738 13.4201L0.392379 7.79508C0.287874 7.69061 0.204975 7.56658 0.148415 7.43006C0.0918556 7.29354 0.0627441 7.14722 0.0627441 6.99946C0.0627441 6.85169 0.0918556 6.70537 0.148415 6.56885C0.204975 6.43234 0.287874 6.3083 0.392379 6.20383L6.01738 0.578832C6.12103 0.470728 6.24522 0.384408 6.38267 0.324934C6.52012 0.265459 6.66806 0.234027 6.81782 0.232482C6.96758 0.230936 7.11613 0.259308 7.25478 0.315934C7.39343 0.372559 7.51938 0.456298 7.62523 0.562239C7.73109 0.668181 7.81473 0.794193 7.87125 0.932885C7.92777 1.07158 7.95602 1.22016 7.95436 1.36992C7.9527 1.51967 7.92115 1.66759 7.86156 1.80499C7.80198 1.94239 7.71556 2.06652 7.60738 2.17008L2.77863 7.00008L7.60738 11.8288C7.76494 11.9861 7.87231 12.1866 7.91588 12.4049C7.95945 12.6232 7.93728 12.8495 7.85216 13.0552C7.76704 13.2609 7.62281 13.4368 7.43772 13.5604C7.25262 13.6841 7.035 13.7501 6.81238 13.7501Z" fill="#CA2F28"/>
</svg>
