<svg width="8" height="14" viewBox="0 0 8 14" fill="none" xmlns="http://www.w3.org/2000/svg">
<path fill-rule="evenodd" clip-rule="evenodd" d="M6.8125 13.75C6.66478 13.7501 6.51851 13.7209 6.38207 13.6643C6.24564 13.6077 6.12174 13.5247 6.0175 13.42L0.392501 7.79499C0.287996 7.69052 0.205097 7.56648 0.148537 7.42997C0.0919776 7.29345 0.0628662 7.14713 0.0628662 6.99936C0.0628662 6.8516 0.0919776 6.70528 0.148537 6.56876C0.205097 6.43225 0.287996 6.30821 0.392501 6.20374L6.0175 0.578741C6.12115 0.470637 6.24534 0.384317 6.38279 0.324842C6.52024 0.265368 6.66818 0.233936 6.81794 0.23239C6.9677 0.230845 7.11626 0.259217 7.2549 0.315842C7.39355 0.372467 7.5195 0.456206 7.62536 0.562148C7.73122 0.66809 7.81486 0.794101 7.87137 0.932794C7.92789 1.07149 7.95614 1.22007 7.95448 1.36982C7.95282 1.51958 7.92127 1.6675 7.86169 1.8049C7.8021 1.9423 7.71569 2.06643 7.6075 2.16999L2.77875 6.99999L7.6075 11.8287C7.76506 11.986 7.87243 12.1865 7.916 12.4048C7.95957 12.6231 7.9374 12.8494 7.85228 13.0551C7.76716 13.2608 7.62293 13.4367 7.43784 13.5604C7.25275 13.684 7.03512 13.75 6.8125 13.75Z" fill="white"/>
</svg>
