<svg width="20" height="20" viewBox="0 0 20 20" fill="none" xmlns="http://www.w3.org/2000/svg">
<g id="icon-check-circle-mono" clip-path="url(#clip0_205_3776)">
<path id="Vector" fill-rule="evenodd" clip-rule="evenodd" d="M14.3393 8.5125L9.68683 13.1658C9.53009 13.3215 9.31815 13.4089 9.09725 13.4089C8.87634 13.4089 8.6644 13.3215 8.50766 13.1658L5.661 10.3192C5.58363 10.2418 5.52225 10.1499 5.48038 10.0489C5.43851 9.94777 5.41695 9.83942 5.41695 9.73C5.41695 9.50902 5.50474 9.29709 5.661 9.14083C5.81725 8.98458 6.02918 8.89679 6.25016 8.89679C6.47114 8.89679 6.68307 8.98458 6.83933 9.14083L9.09683 11.3983L13.161 7.33417C13.2384 7.2568 13.3302 7.19542 13.4313 7.15355C13.5324 7.11168 13.6407 7.09013 13.7502 7.09013C13.8596 7.09013 13.9679 7.11168 14.069 7.15355C14.1701 7.19542 14.262 7.2568 14.3393 7.33417C14.4167 7.41154 14.4781 7.50339 14.5199 7.60448C14.5618 7.70557 14.5834 7.81392 14.5834 7.92334C14.5834 8.03275 14.5618 8.1411 14.5199 8.24219C14.4781 8.34328 14.4167 8.43513 14.3393 8.5125ZM10.0002 0.833336C4.93766 0.833336 0.833496 4.9375 0.833496 10C0.833496 15.0625 4.93766 19.1667 10.0002 19.1667C15.0627 19.1667 19.1668 15.0625 19.1668 10C19.1668 4.9375 15.0627 0.833336 10.0002 0.833336Z" fill="#CA2F28"/>
</g>
<defs>
<clipPath id="clip0_205_3776">
<rect width="20" height="20" fill="white"/>
</clipPath>
</defs>
</svg>
