<svg xmlns="http://www.w3.org/2000/svg" width="12" height="12" viewBox="0 0 12 12" fill="none">
<path fill-rule="evenodd" clip-rule="evenodd" d="M1.94979 4.31251C1.94979 4.14001 2.01729 3.96751 2.14479 3.83251C2.27129 3.70656 2.44253 3.63585 2.62104 3.63585C2.79955 3.63585 2.97079 3.70656 3.09729 3.83251L5.99979 6.73501L8.89479 3.83251C9.02129 3.70656 9.19253 3.63585 9.37104 3.63585C9.54955 3.63585 9.72079 3.70656 9.84729 3.83251C9.97323 3.95901 10.0439 4.13025 10.0439 4.30876C10.0439 4.48727 9.97323 4.65851 9.84729 4.78501L6.47229 8.16001C6.34579 8.28595 6.17455 8.35666 5.99604 8.35666C5.81753 8.35666 5.64629 8.28595 5.51979 8.16001L2.14479 4.78501C2.01729 4.65751 1.94979 4.48501 1.94979 4.31251Z" fill="#CA2F28"/>
</svg>