<svg width="10" height="6" viewBox="0 0 10 6" fill="none" xmlns="http://www.w3.org/2000/svg">
<path fill-rule="evenodd" clip-rule="evenodd" d="M0.950031 1.3124C0.950031 1.1399 1.01753 0.9674 1.14503 0.8324C1.27153 0.706452 1.44277 0.635742 1.62128 0.635742C1.79979 0.635742 1.97103 0.706452 2.09753 0.8324L5.00003 3.7349L7.89503 0.8324C8.02153 0.706453 8.19277 0.635742 8.37128 0.635742C8.54979 0.635742 8.72103 0.706453 8.84753 0.8324C8.97348 0.958901 9.04419 1.13014 9.04419 1.30865C9.04419 1.48716 8.97348 1.6584 8.84753 1.7849L5.47253 5.1599C5.34603 5.28585 5.17479 5.35656 4.99628 5.35656C4.81777 5.35656 4.64653 5.28585 4.52003 5.1599L1.14503 1.7849C1.01753 1.6574 0.950031 1.4849 0.950031 1.3124" fill="#CA2F28"/>
</svg>
