<svg width="16" height="15" viewBox="0 0 16 15" fill="none" xmlns="http://www.w3.org/2000/svg">
<path d="M1.58317 13.625H2.58967L12.3964 4.26425L11.3897 3.30328L1.58317 12.6643V13.625ZM0.666504 14.5V12.2957L12.7489 0.750688C12.8428 0.670771 12.9465 0.60901 13.0598 0.565406C13.1734 0.521802 13.2917 0.5 13.4148 0.5C13.538 0.5 13.6573 0.51852 13.7728 0.555562C13.8881 0.592604 13.9946 0.659323 14.0922 0.755719L15.0705 1.69481C15.1715 1.78785 15.2406 1.88994 15.2777 2.00106C15.3147 2.11233 15.3332 2.22353 15.3332 2.33466C15.3332 2.45322 15.3122 2.56668 15.2704 2.67503C15.2285 2.78324 15.1619 2.88219 15.0705 2.97187L2.97582 14.5H0.666504ZM11.8842 3.79219L11.3897 3.30328L12.3964 4.26425L11.8842 3.79219Z" fill="#898D99"/>
</svg>
