<svg width="41" height="40" viewBox="0 0 41 40" fill="none" xmlns="http://www.w3.org/2000/svg">
<rect x="0.5" width="40" height="40" rx="20" fill="white"/>
<mask id="mask0_291_2050" style="mask-type:luminance" maskUnits="userSpaceOnUse" x="13" y="12" width="15" height="16">
<path d="M27.3334 18.6667H20.5001V21.5001H24.4334C24.0667 23.3001 22.5334 24.3334 20.5001 24.3334C18.1001 24.3334 16.1667 22.4001 16.1667 20.0001C16.1667 17.6001 18.1001 15.6667 20.5001 15.6667C21.5334 15.6667 22.4667 16.0334 23.2001 16.6334L25.3334 14.5001C24.0334 13.3667 22.3667 12.6667 20.5001 12.6667C16.4334 12.6667 13.1667 15.9334 13.1667 20.0001C13.1667 24.0667 16.4334 27.3334 20.5001 27.3334C24.1667 27.3334 27.5001 24.6667 27.5001 20.0001C27.5001 19.5667 27.4334 19.1001 27.3334 18.6667Z" fill="white"/>
</mask>
<g mask="url(#mask0_291_2050)">
<path d="M12.5 24.3334V15.6667L18.1667 20.0001L12.5 24.3334Z" fill="#FBBC05"/>
</g>
<mask id="mask1_291_2050" style="mask-type:luminance" maskUnits="userSpaceOnUse" x="13" y="12" width="15" height="16">
<path d="M27.3334 18.6667H20.5001V21.5001H24.4334C24.0667 23.3001 22.5334 24.3334 20.5001 24.3334C18.1001 24.3334 16.1667 22.4001 16.1667 20.0001C16.1667 17.6001 18.1001 15.6667 20.5001 15.6667C21.5334 15.6667 22.4667 16.0334 23.2001 16.6334L25.3334 14.5001C24.0334 13.3667 22.3667 12.6667 20.5001 12.6667C16.4334 12.6667 13.1667 15.9334 13.1667 20.0001C13.1667 24.0667 16.4334 27.3334 20.5001 27.3334C24.1667 27.3334 27.5001 24.6667 27.5001 20.0001C27.5001 19.5667 27.4334 19.1001 27.3334 18.6667Z" fill="white"/>
</mask>
<g mask="url(#mask1_291_2050)">
<path d="M12.5 15.6667L18.1667 20L20.5 17.9667L28.5 16.6667V12H12.5V15.6667Z" fill="#EA4335"/>
</g>
<mask id="mask2_291_2050" style="mask-type:luminance" maskUnits="userSpaceOnUse" x="13" y="12" width="15" height="16">
<path d="M27.3334 18.6667H20.5001V21.5001H24.4334C24.0667 23.3001 22.5334 24.3334 20.5001 24.3334C18.1001 24.3334 16.1667 22.4001 16.1667 20.0001C16.1667 17.6001 18.1001 15.6667 20.5001 15.6667C21.5334 15.6667 22.4667 16.0334 23.2001 16.6334L25.3334 14.5001C24.0334 13.3667 22.3667 12.6667 20.5001 12.6667C16.4334 12.6667 13.1667 15.9334 13.1667 20.0001C13.1667 24.0667 16.4334 27.3334 20.5001 27.3334C24.1667 27.3334 27.5001 24.6667 27.5001 20.0001C27.5001 19.5667 27.4334 19.1001 27.3334 18.6667Z" fill="white"/>
</mask>
<g mask="url(#mask2_291_2050)">
<path d="M12.5 24.3333L22.5 16.6667L25.1333 17L28.5 12V28H12.5V24.3333Z" fill="#34A853"/>
</g>
<mask id="mask3_291_2050" style="mask-type:luminance" maskUnits="userSpaceOnUse" x="13" y="12" width="15" height="16">
<path d="M27.3334 18.6667H20.5001V21.5001H24.4334C24.0667 23.3001 22.5334 24.3334 20.5001 24.3334C18.1001 24.3334 16.1667 22.4001 16.1667 20.0001C16.1667 17.6001 18.1001 15.6667 20.5001 15.6667C21.5334 15.6667 22.4667 16.0334 23.2001 16.6334L25.3334 14.5001C24.0334 13.3667 22.3667 12.6667 20.5001 12.6667C16.4334 12.6667 13.1667 15.9334 13.1667 20.0001C13.1667 24.0667 16.4334 27.3334 20.5001 27.3334C24.1667 27.3334 27.5001 24.6667 27.5001 20.0001C27.5001 19.5667 27.4334 19.1001 27.3334 18.6667Z" fill="white"/>
</mask>
<g mask="url(#mask3_291_2050)">
<path d="M28.5002 28.0001L18.1668 20.0001L16.8335 19.0001L28.5002 15.6667V28.0001Z" fill="#4285F4"/>
</g>
</svg>
