<svg width="16" height="16" viewBox="0 0 16 16" fill="none" xmlns="http://www.w3.org/2000/svg">
<path fill-rule="evenodd" clip-rule="evenodd" d="M7.99984 6.13317C7.78766 6.13317 7.58418 6.04888 7.43415 5.89886C7.28412 5.74883 7.19984 5.54534 7.19984 5.33317C7.19984 5.121 7.28412 4.91751 7.43415 4.76749C7.58418 4.61746 7.78766 4.53317 7.99984 4.53317C8.21201 4.53317 8.41549 4.61746 8.56552 4.76749C8.71555 4.91751 8.79984 5.121 8.79984 5.33317C8.79984 5.54534 8.71555 5.74883 8.56552 5.89886C8.41549 6.04888 8.21201 6.13317 7.99984 6.13317V6.13317ZM8.6665 11.0898C8.6665 11.2666 8.59627 11.4362 8.47124 11.5612C8.34622 11.6863 8.17665 11.7565 7.99984 11.7565C7.82303 11.7565 7.65346 11.6863 7.52843 11.5612C7.40341 11.4362 7.33317 11.2666 7.33317 11.0898V7.7565C7.33317 7.57969 7.40341 7.41012 7.52843 7.2851C7.65346 7.16008 7.82303 7.08984 7.99984 7.08984C8.17665 7.08984 8.34622 7.16008 8.47124 7.2851C8.59627 7.41012 8.6665 7.57969 8.6665 7.7565V11.0898ZM7.99984 0.666504C3.94984 0.666504 0.666504 3.94984 0.666504 7.99984C0.666504 12.0498 3.94984 15.3332 7.99984 15.3332C12.0498 15.3332 15.3332 12.0498 15.3332 7.99984C15.3332 3.94984 12.0498 0.666504 7.99984 0.666504Z" fill="#8EA0AC"/>
</svg>
