<svg width="10" height="12" viewBox="0 0 10 12" fill="none" xmlns="http://www.w3.org/2000/svg">
<path fill-rule="evenodd" clip-rule="evenodd" d="M5.00008 6.37079C4.81972 6.37425 4.64048 6.34172 4.47284 6.27509C4.3052 6.20846 4.15252 6.10908 4.02375 5.98275C3.89497 5.85642 3.79267 5.70568 3.72284 5.53935C3.65301 5.37302 3.61704 5.19444 3.61704 5.01404C3.61704 4.83365 3.65301 4.65506 3.72284 4.48873C3.79267 4.3224 3.89497 4.17166 4.02375 4.04533C4.15252 3.919 4.3052 3.81962 4.47284 3.75299C4.64048 3.68636 4.81972 3.65383 5.00008 3.65729C5.35541 3.66411 5.69387 3.81005 5.94275 4.06375C6.19162 4.31745 6.33104 4.65865 6.33104 5.01404C6.33104 5.36943 6.19162 5.71064 5.94275 5.96433C5.69387 6.21803 5.35541 6.36397 5.00008 6.37079M3.93808 0.518292C1.80308 0.994792 0.306084 3.00429 0.390084 5.19029C0.456084 6.90729 1.50958 8.44329 4.64408 11.4568C4.84208 11.6468 5.15908 11.6478 5.35758 11.4573C8.59958 8.34079 9.61558 6.80479 9.61558 5.01379C9.61558 2.11879 6.94908 -0.153708 3.93808 0.518792" fill="#C8C8C8"/>
</svg>
