<svg width="16" height="4" viewBox="0 0 16 4" fill="none" xmlns="http://www.w3.org/2000/svg">
<path fill-rule="evenodd" clip-rule="evenodd" d="M2.16667 3.66751C1.94774 3.66746 1.73097 3.62428 1.52873 3.54045C1.32649 3.45662 1.14275 3.33378 0.987983 3.17894C0.833219 3.0241 0.710468 2.84029 0.62674 2.63801C0.543012 2.43573 0.499945 2.21893 0.5 2.00001C0.500055 1.78109 0.543229 1.56432 0.627059 1.36208C0.710888 1.15984 0.83373 0.976091 0.988572 0.821327C1.14341 0.666562 1.32722 0.543812 1.5295 0.460084C1.73178 0.376355 1.94858 0.333289 2.1675 0.333344C2.60964 0.333454 3.03362 0.509199 3.34618 0.821916C3.65874 1.13463 3.83428 1.55871 3.83417 2.00084C3.83406 2.44298 3.65831 2.86697 3.34559 3.17953C3.03288 3.49209 2.6088 3.66762 2.16667 3.66751ZM7.80917 3.66751C7.36714 3.66751 6.94322 3.49192 6.63066 3.17935C6.31809 2.86679 6.1425 2.44287 6.1425 2.00084C6.1425 1.55882 6.31809 1.13489 6.63066 0.822333C6.94322 0.509772 7.36714 0.334177 7.80917 0.334177C8.25119 0.334177 8.67512 0.509772 8.98768 0.822333C9.30024 1.13489 9.47583 1.55882 9.47583 2.00084C9.47583 2.44287 9.30024 2.86679 8.98768 3.17935C8.67512 3.49192 8.25119 3.66751 7.80917 3.66751ZM13.4508 3.66751C13.2319 3.66746 13.0151 3.62428 12.8129 3.54045C12.6107 3.45662 12.4269 3.33378 12.2721 3.17894C12.1174 3.0241 11.9946 2.84029 11.9109 2.63801C11.8272 2.43573 11.7841 2.21893 11.7842 2.00001C11.7842 1.78109 11.8274 1.56432 11.9112 1.36208C11.9951 1.15984 12.1179 0.976091 12.2727 0.821327C12.4276 0.666562 12.6114 0.543812 12.8137 0.460084C13.016 0.376355 13.2327 0.333289 13.4517 0.333344C13.8938 0.333454 14.3178 0.509199 14.6304 0.821916C14.9429 1.13463 15.1184 1.55871 15.1183 2.00084C15.1182 2.44298 14.9425 2.86697 14.6298 3.17953C14.317 3.49209 13.893 3.66762 13.4508 3.66751Z" fill="white"/>
</svg>
