<svg xmlns="http://www.w3.org/2000/svg" width="24" height="24" viewBox="0 0 24 24" fill="none">
<path opacity="0.8" d="M5.1001 18.8125C4.84176 18.8125 4.62093 18.7208 4.4376 18.5375C4.25426 18.3542 4.1626 18.1333 4.1626 17.875C4.1626 17.6167 4.25426 17.3958 4.4376 17.2125C4.62093 17.0292 4.84176 16.9375 5.1001 16.9375H6.0376V10.1625C6.0376 8.77918 6.45635 7.55001 7.29385 6.47501C8.13135 5.40001 9.21676 4.69168 10.5501 4.35001V3.70001C10.5501 3.30001 10.6918 2.96043 10.9751 2.68126C11.2584 2.4021 11.6001 2.26251 12.0001 2.26251C12.4001 2.26251 12.7418 2.4021 13.0251 2.68126C13.3084 2.96043 13.4501 3.30001 13.4501 3.70001V4.35001C14.7834 4.69168 15.8688 5.40001 16.7063 6.47501C17.5438 7.55001 17.9626 8.77918 17.9626 10.1625V16.9375H18.9001C19.1584 16.9375 19.3793 17.0292 19.5626 17.2125C19.7459 17.3958 19.8376 17.6167 19.8376 17.875C19.8376 18.1333 19.7459 18.3542 19.5626 18.5375C19.3793 18.7208 19.1584 18.8125 18.9001 18.8125H5.1001ZM12.0001 21.7C11.4584 21.7 10.998 21.5104 10.6188 21.1313C10.2397 20.7521 10.0501 20.2917 10.0501 19.75H13.9501C13.9501 20.2917 13.7605 20.7521 13.3813 21.1313C13.0022 21.5104 12.5418 21.7 12.0001 21.7Z" fill="#C1C1C1"/>
</svg>