<svg width="20" height="20" viewBox="0 0 20 20" fill="none" xmlns="http://www.w3.org/2000/svg">
<path fill-rule="evenodd" clip-rule="evenodd" d="M14.003 8.668C13.7647 8.67357 13.5277 8.63144 13.3059 8.54408C13.0841 8.45672 12.8821 8.3259 12.7116 8.15931C12.5411 7.99272 12.4057 7.79372 12.3132 7.57402C12.2207 7.35432 12.1732 7.11835 12.1732 6.87999C12.1733 6.64163 12.221 6.40568 12.3136 6.18604C12.4062 5.96639 12.5417 5.76747 12.7123 5.60097C12.8829 5.43448 13.085 5.30377 13.3069 5.21653C13.5287 5.1293 13.7657 5.0873 14.004 5.093C14.4708 5.10417 14.9146 5.29747 15.2407 5.63158C15.5669 5.96569 15.7494 6.4141 15.7492 6.88099C15.7491 7.34787 15.5663 7.79619 15.24 8.13012C14.9137 8.46404 14.4698 8.65709 14.003 8.668M12.279 14.78H6.255C6.04261 14.7803 5.83407 14.7233 5.6513 14.6152C5.46853 14.507 5.31828 14.3515 5.21637 14.1652C5.11445 13.9789 5.06462 13.7685 5.07212 13.5562C5.07962 13.344 5.14418 13.1377 5.259 12.959L8.272 8.264C8.37892 8.09698 8.52614 7.95955 8.7001 7.86435C8.87407 7.76916 9.06919 7.71926 9.2675 7.71926C9.46581 7.71926 9.66093 7.76916 9.8349 7.86435C10.0089 7.95955 10.1561 8.09698 10.263 8.264L13.274 12.959C13.3888 13.1376 13.4533 13.3438 13.4609 13.556C13.4684 13.7682 13.4187 13.9785 13.3169 14.1648C13.2151 14.3511 13.065 14.5065 12.8823 14.6148C12.6997 14.723 12.4913 14.7801 12.279 14.78M17.287 0.25H2.713C2.05977 0.25 1.4333 0.509494 0.971396 0.971396C0.509494 1.4333 0.25 2.05977 0.25 2.713V17.287C0.25 17.9402 0.509494 18.5667 0.971396 19.0286C1.4333 19.4905 2.05977 19.75 2.713 19.75H17.287C17.9402 19.75 18.5667 19.4905 19.0286 19.0286C19.4905 18.5667 19.75 17.9402 19.75 17.287V2.713C19.75 2.05977 19.4905 1.4333 19.0286 0.971396C18.5667 0.509494 17.9402 0.25 17.287 0.25" fill="#E1E1E1"/>
</svg>
