<svg width="14" height="14" viewBox="0 0 14 14" fill="none" xmlns="http://www.w3.org/2000/svg">
<path d="M13.566 12.4339L10.4946 9.36255C11.218 8.40388 11.652 7.21588 11.652 5.92522C11.652 2.76788 9.08262 0.199219 5.92595 0.199219C2.76862 0.199885 0.199951 2.76855 0.199951 5.92589C0.199951 9.08255 2.76862 11.6519 5.92595 11.6519C7.21595 11.6519 8.40462 11.2179 9.36329 10.4946L12.4346 13.5659C12.5906 13.7219 12.7953 13.7999 13 13.7999C13.2046 13.7999 13.4093 13.7219 13.566 13.5652C13.878 13.2532 13.878 12.7466 13.566 12.4339ZM1.79995 5.92589C1.79995 3.65055 3.65062 1.79989 5.92595 1.79989C8.20062 1.79989 10.0513 3.65055 10.0513 5.92522C10.0513 8.19988 8.20062 10.0506 5.92595 10.0506C3.65062 10.0512 1.79995 8.20055 1.79995 5.92589Z" fill="#CA2F28"/>
</svg>
