<svg width="14" height="12" viewBox="0 0 14 12" fill="none" xmlns="http://www.w3.org/2000/svg">
<path fill-rule="evenodd" clip-rule="evenodd" d="M1.57842 5.19983H10.9357L7.30175 1.56583C6.98908 1.25316 6.98908 0.746497 7.30175 0.434497C7.61442 0.12183 8.12041 0.12183 8.43308 0.434497L13.4331 5.4345C13.4351 5.43583 13.4357 5.4385 13.4377 5.4405C13.5091 5.51316 13.5664 5.59916 13.6057 5.69383C13.6871 5.88983 13.6871 6.10983 13.6057 6.30583C13.5664 6.40116 13.5091 6.4865 13.4377 6.55916C13.4357 6.56116 13.4351 6.56383 13.4331 6.56583L8.43308 11.5658C8.27708 11.7218 8.07242 11.7998 7.86775 11.7998C7.66242 11.7998 7.45775 11.7218 7.30175 11.5658C6.98908 11.2532 6.98908 10.7465 7.30175 10.4345L10.9357 6.79983H1.57842C1.13642 6.79983 0.778415 6.44183 0.778415 5.99983C0.778415 5.5585 1.13642 5.19983 1.57842 5.19983Z" fill="white"/>
</svg>
