<svg width="19" height="16" viewBox="0 0 19 16" fill="none" xmlns="http://www.w3.org/2000/svg">
<path fill-rule="evenodd" clip-rule="evenodd" d="M9.49971 13.185C8.38425 13.1837 7.31485 12.74 6.5261 11.9513C5.73735 11.1625 5.29367 10.0931 5.29239 8.97764C5.29346 7.86205 5.73704 6.79243 6.52581 6.00351C7.31458 5.21459 8.38411 4.7708 9.49971 4.76952C10.6153 4.7708 11.6848 5.21459 12.4736 6.00351C13.2624 6.79243 13.706 7.86205 13.707 8.97764C13.7058 10.0931 13.2621 11.1625 12.4733 11.9513C11.6846 12.74 10.6152 13.1837 9.49971 13.185ZM16.0064 2.65383H13.6373L12.7446 0.914286C12.6031 0.638902 12.3884 0.407868 12.1241 0.246572C11.8598 0.0852753 11.5561 -4.03999e-05 11.2465 1.43516e-08H7.70723C7.39151 -3.7573e-05 7.08213 0.0886703 6.8144 0.256003C6.54667 0.423335 6.33136 0.662554 6.19305 0.946366L5.36217 2.65383H2.99305C2.72757 2.65373 2.46467 2.70593 2.21938 2.80745C1.97408 2.90897 1.75118 3.05782 1.56343 3.2455C1.37567 3.43319 1.22673 3.65602 1.12511 3.90128C1.02349 4.14654 0.971191 4.40941 0.971191 4.67489V13.9789C0.971191 14.2444 1.02349 14.5073 1.12511 14.7526C1.22673 14.9978 1.37567 15.2206 1.56343 15.4083C1.75118 15.596 1.97408 15.7449 2.21938 15.8464C2.46467 15.9479 2.72757 16.0001 2.99305 16H16.0064C16.2719 16.0001 16.5348 15.9479 16.78 15.8464C17.0253 15.7449 17.2482 15.596 17.436 15.4083C17.6238 15.2206 17.7727 14.9978 17.8743 14.7526C17.9759 14.5073 18.0282 14.2444 18.0282 13.9789V4.67489C18.0282 4.40941 17.9759 4.14654 17.8743 3.90128C17.7727 3.65602 17.6238 3.43319 17.436 3.2455C17.2482 3.05782 17.0253 2.90897 16.78 2.80745C16.5348 2.70593 16.2719 2.65373 16.0064 2.65383Z" fill="#C8C8C8"/>
<path fill-rule="evenodd" clip-rule="evenodd" d="M9.49981 6.28564C8.7863 6.28649 8.10228 6.57036 7.59783 7.07496C7.09338 7.57956 6.80972 8.26367 6.80908 8.97717C6.80951 9.69074 7.0931 10.375 7.5976 10.8796C8.10209 11.3843 8.78624 11.6681 9.49981 11.6687C10.2134 11.6681 10.8975 11.3843 11.402 10.8796C11.9065 10.375 12.1901 9.69074 12.1905 8.97717C12.1899 8.26367 11.9062 7.57956 11.4018 7.07496C10.8973 6.57036 10.2133 6.28649 9.49981 6.28564Z" fill="#C8C8C8"/>
</svg>
