<svg width="19" height="16" viewBox="0 0 19 16" fill="none" xmlns="http://www.w3.org/2000/svg">
<path fill-rule="evenodd" clip-rule="evenodd" d="M9.49985 13.185C8.38439 13.1837 7.31498 12.74 6.52623 11.9513C5.73748 11.1625 5.29381 10.0931 5.29253 8.97764C5.29359 7.86205 5.73718 6.79243 6.52595 6.00351C7.31472 5.21459 8.38425 4.7708 9.49985 4.76952C10.6154 4.7708 11.685 5.21459 12.4737 6.00351C13.2625 6.79243 13.7061 7.86205 13.7072 8.97764C13.7059 10.0931 13.2622 11.1625 12.4735 11.9513C11.6847 12.74 10.6153 13.1837 9.49985 13.185M16.0065 2.65383H13.6374L12.7448 0.914286C12.6032 0.638902 12.3885 0.407868 12.1242 0.246572C11.8599 0.0852753 11.5562 -4.03999e-05 11.2466 1.43516e-08H7.70737C7.39165 -3.7573e-05 7.08227 0.0886703 6.81454 0.256003C6.54681 0.423335 6.3315 0.662554 6.19318 0.946366L5.36231 2.65383H2.99318C2.72771 2.65373 2.46481 2.70593 2.21951 2.80745C1.97422 2.90897 1.75132 3.05782 1.56356 3.2455C1.37581 3.43319 1.22687 3.65602 1.12525 3.90128C1.02363 4.14654 0.971329 4.40941 0.971329 4.67489V13.9789C0.971329 14.2444 1.02363 14.5073 1.12525 14.7526C1.22687 14.9978 1.37581 15.2206 1.56356 15.4083C1.75132 15.596 1.97422 15.7449 2.21951 15.8464C2.46481 15.9479 2.72771 16.0001 2.99318 16H16.0065C16.272 16.0001 16.5349 15.9479 16.7802 15.8464C17.0255 15.7449 17.2484 15.596 17.4361 15.4083C17.6239 15.2206 17.7728 14.9978 17.8745 14.7526C17.9761 14.5073 18.0284 14.2444 18.0284 13.9789V4.67489C18.0284 4.40941 17.9761 4.14654 17.8745 3.90128C17.7728 3.65602 17.6239 3.43319 17.4361 3.2455C17.2484 3.05782 17.0255 2.90897 16.7802 2.80745C16.5349 2.70593 16.272 2.65373 16.0065 2.65383" fill="#CA2F28"/>
<path fill-rule="evenodd" clip-rule="evenodd" d="M9.49996 6.28564C8.78646 6.28649 8.10243 6.57036 7.59798 7.07496C7.09354 7.57956 6.80987 8.26367 6.80923 8.97717C6.80966 9.69074 7.09326 10.375 7.59775 10.8796C8.10224 11.3843 8.78639 11.6681 9.49996 11.6687C10.2135 11.6681 10.8977 11.3843 11.4022 10.8796C11.9067 10.375 12.1903 9.69074 12.1907 8.97717C12.1901 8.26367 11.9064 7.57956 11.4019 7.07496C10.8975 6.57036 10.2135 6.28649 9.49996 6.28564Z" fill="#CA2F28"/>
</svg>
