<svg width="18" height="16" viewBox="0 0 18 16" fill="none" xmlns="http://www.w3.org/2000/svg">
<path fill-rule="evenodd" clip-rule="evenodd" d="M12.935 8.56866C12.7687 8.5726 12.6033 8.5452 12.4485 8.48808C12.2936 8.43096 12.1525 8.34527 12.0335 8.23607C11.9144 8.12687 11.8198 7.99636 11.7552 7.85224C11.6907 7.70812 11.6574 7.5533 11.6575 7.39691C11.6575 7.24052 11.6909 7.08572 11.7556 6.94164C11.8202 6.79756 11.9149 6.66711 12.0341 6.55798C12.1532 6.44885 12.2943 6.36325 12.4492 6.30623C12.6041 6.2492 12.7695 6.2219 12.9358 6.22594C13.2607 6.23383 13.5694 6.36075 13.7962 6.57965C14.023 6.79854 14.1498 7.09208 14.1497 7.39767C14.1496 7.70327 14.0226 7.99673 13.7956 8.21548C13.5687 8.43424 13.2599 8.56097 12.935 8.56866M8.9535 8.56866C8.78713 8.5726 8.6216 8.54518 8.46667 8.48802C8.31174 8.43086 8.17055 8.34512 8.05142 8.23585C7.93229 8.12658 7.83762 7.99598 7.77301 7.85177C7.70839 7.70756 7.67513 7.55264 7.67518 7.39615C7.67524 7.23966 7.7086 7.08476 7.77332 6.94059C7.83804 6.79641 7.93279 6.66588 8.052 6.55668C8.17121 6.44748 8.31246 6.36182 8.46743 6.30476C8.62239 6.24769 8.78794 6.22038 8.95431 6.22441C9.27941 6.23231 9.58837 6.35931 9.8153 6.57835C10.0422 6.79738 10.1692 7.09112 10.1691 7.39691C10.169 7.7027 10.0418 7.99636 9.81473 8.21526C9.58765 8.43415 9.27861 8.56097 8.9535 8.56866M4.97122 8.56866C4.80495 8.5726 4.63953 8.5452 4.4847 8.48808C4.32988 8.43096 4.18878 8.34527 4.06972 8.23607C3.95066 8.12687 3.85606 7.99636 3.79148 7.85224C3.72691 7.70812 3.69367 7.5533 3.69372 7.39691C3.69377 7.24052 3.72712 7.08572 3.7918 6.94164C3.85647 6.79756 3.95117 6.66711 4.0703 6.55798C4.18943 6.44885 4.33059 6.36325 4.48546 6.30623C4.64032 6.2492 4.80577 6.2219 4.97203 6.22594C5.29691 6.23383 5.60567 6.36075 5.83245 6.57965C6.05923 6.79854 6.18609 7.09208 6.18599 7.39767C6.18588 7.70327 6.05882 7.99673 5.83188 8.21548C5.60495 8.43424 5.29611 8.56097 4.97122 8.56866M8.90003 0C4.17395 0 0.328598 3.28667 0.328598 7.32683C0.328598 9.05626 1.10642 11.4096 3.27298 12.9288L3.01775 15.4384C3.00817 15.5309 3.02553 15.624 3.06798 15.7079C3.11042 15.7919 3.17635 15.8633 3.2587 15.9147C3.34105 15.966 3.43671 15.9954 3.53542 15.9995C3.63414 16.0036 3.73219 15.9824 3.81907 15.9382L6.59897 14.5318C6.94494 14.5653 7.96097 14.6537 8.90003 14.6537C13.6261 14.6537 17.4715 11.367 17.4715 7.32683C17.4715 3.28667 13.6261 0 8.90003 0Z" fill="#CA2F28"/>
</svg>
