<svg width="18" height="16" viewBox="0 0 18 16" fill="none" xmlns="http://www.w3.org/2000/svg">
<path fill-rule="evenodd" clip-rule="evenodd" d="M12.9355 8.56866C12.7692 8.5726 12.6038 8.5452 12.449 8.48808C12.2941 8.43096 12.153 8.34527 12.034 8.23607C11.9149 8.12687 11.8203 7.99636 11.7557 7.85224C11.6912 7.70812 11.6579 7.5533 11.658 7.39691C11.658 7.24052 11.6914 7.08572 11.7561 6.94164C11.8207 6.79756 11.9154 6.66711 12.0346 6.55798C12.1537 6.44885 12.2949 6.36325 12.4497 6.30623C12.6046 6.2492 12.77 6.2219 12.9363 6.22594C13.2612 6.23383 13.5699 6.36075 13.7967 6.57965C14.0235 6.79854 14.1504 7.09208 14.1502 7.39767C14.1501 7.70327 14.0231 7.99673 13.7961 8.21548C13.5692 8.43424 13.2604 8.56097 12.9355 8.56866ZM8.95401 8.56866C8.78763 8.5726 8.6221 8.54518 8.46718 8.48802C8.31225 8.43086 8.17106 8.34512 8.05192 8.23585C7.93279 8.12658 7.83813 7.99598 7.77351 7.85177C7.70889 7.70756 7.67563 7.55264 7.67568 7.39615C7.67574 7.23966 7.70911 7.08476 7.77382 6.94059C7.83854 6.79641 7.9333 6.66588 8.05251 6.55668C8.17171 6.44748 8.31296 6.36182 8.46793 6.30476C8.6229 6.24769 8.78844 6.22038 8.95481 6.22441C9.27991 6.23231 9.58887 6.35931 9.8158 6.57835C10.0427 6.79738 10.1697 7.09112 10.1696 7.39691C10.1695 7.7027 10.0423 7.99636 9.81524 8.21526C9.58815 8.43415 9.27911 8.56097 8.95401 8.56866ZM4.97172 8.56866C4.80546 8.5726 4.64003 8.5452 4.48521 8.48808C4.33038 8.43096 4.18928 8.34527 4.07022 8.23607C3.95116 8.12687 3.85656 7.99636 3.79198 7.85224C3.72741 7.70812 3.69417 7.5533 3.69422 7.39691C3.69428 7.24052 3.72762 7.08572 3.7923 6.94164C3.85698 6.79756 3.95167 6.66711 4.0708 6.55798C4.18993 6.44885 4.33109 6.36325 4.48596 6.30623C4.64083 6.2492 4.80627 6.2219 4.97253 6.22594C5.29742 6.23383 5.60617 6.36075 5.83295 6.57965C6.05973 6.79854 6.1866 7.09208 6.18649 7.39767C6.18639 7.70327 6.05932 7.99673 5.83239 8.21548C5.60545 8.43424 5.29661 8.56097 4.97172 8.56866ZM8.90053 0C4.17446 0 0.329102 3.28667 0.329102 7.32683C0.329102 9.05626 1.10692 11.4096 3.27348 12.9288L3.01826 15.4384C3.00867 15.5309 3.02603 15.624 3.06848 15.7079C3.11093 15.7919 3.17686 15.8633 3.2592 15.9147C3.34155 15.966 3.43721 15.9954 3.53593 15.9995C3.63464 16.0036 3.7327 15.9824 3.81957 15.9382L6.59947 14.5318C6.94544 14.5653 7.96147 14.6537 8.90053 14.6537C13.6266 14.6537 17.472 11.367 17.472 7.32683C17.472 3.28667 13.6266 0 8.90053 0Z" fill="#C8C8C8"/>
</svg>
