<svg width="17" height="16" viewBox="0 0 17 16" fill="none" xmlns="http://www.w3.org/2000/svg">
<path fill-rule="evenodd" clip-rule="evenodd" d="M12.9241 9.12884H11.2461L10.6503 11.2933C10.6044 11.4647 10.5029 11.616 10.3618 11.7235C10.2206 11.831 10.0478 11.8887 9.87039 11.8874C9.69303 11.8888 9.52026 11.8311 9.37923 11.7236C9.23821 11.616 9.13692 11.4647 9.09129 11.2933L8.09994 7.69286L7.10938 11.2933C7.06363 11.4646 6.96231 11.6159 6.82131 11.7234C6.68031 11.8309 6.50761 11.8886 6.33029 11.8874H6.32948C6.15216 11.8887 5.97943 11.8312 5.8383 11.7238C5.69718 11.6164 5.59564 11.4653 5.54958 11.2941L4.9538 9.12884H3.27582C3.10522 9.12884 2.94162 9.06108 2.82099 8.94045C2.70037 8.81982 2.6326 8.65622 2.6326 8.48563C2.6326 8.31504 2.70037 8.15143 2.82099 8.03081C2.94162 7.91018 3.10522 7.84241 3.27582 7.84241H4.59923L4.06456 5.89749C4.03915 5.81517 4.03055 5.72859 4.03924 5.64288C4.04794 5.55718 4.07376 5.47409 4.11518 5.39855C4.1566 5.32302 4.21277 5.25657 4.28036 5.20316C4.34794 5.14974 4.42557 5.11045 4.50864 5.08761C4.5917 5.06477 4.67851 5.05885 4.7639 5.0702C4.8493 5.08155 4.93154 5.10993 5.00576 5.15367C5.07998 5.19741 5.14465 5.25562 5.19594 5.32483C5.24724 5.39404 5.2841 5.47285 5.30436 5.55658L6.32948 9.27839L7.32004 5.67799C7.36595 5.5066 7.46742 5.35529 7.60855 5.24777C7.74969 5.14024 7.92251 5.08258 8.09994 5.08382C8.46818 5.08382 8.78174 5.32261 8.87984 5.67799L9.87039 9.27839L10.8955 5.55658C10.9407 5.39207 11.0494 5.25225 11.1977 5.16789C11.2712 5.12612 11.3521 5.09921 11.4359 5.08872C11.5197 5.07823 11.6048 5.08435 11.6863 5.10673C11.7677 5.12912 11.844 5.16733 11.9107 5.21918C11.9774 5.27103 12.0332 5.33552 12.075 5.40894C12.1167 5.48237 12.1436 5.56331 12.1541 5.64713C12.1646 5.73096 12.1585 5.81603 12.1361 5.89749L11.6006 7.84241H12.9241C13.0085 7.84241 13.0922 7.85905 13.1702 7.89137C13.2482 7.9237 13.3191 7.97108 13.3789 8.03081C13.4386 8.09053 13.486 8.16144 13.5183 8.23948C13.5506 8.31752 13.5673 8.40116 13.5673 8.48563C13.5673 8.5701 13.5506 8.65374 13.5183 8.73178C13.486 8.80981 13.4386 8.88072 13.3789 8.94045C13.3191 9.00018 13.2482 9.04756 13.1702 9.07988C13.0922 9.11221 13.0085 9.12884 12.9241 9.12884ZM15.3361 0H0.863755C0.671839 4.04432e-09 0.487784 0.076238 0.35208 0.211943C0.216375 0.347647 0.140137 0.531703 0.140137 0.723618C0.140137 0.915533 0.216375 1.09959 0.35208 1.23529C0.487784 1.371 0.671839 1.44724 0.863755 1.44724V15.196C0.863755 15.4092 0.948464 15.6137 1.09925 15.7645C1.25003 15.9153 1.45454 16 1.66777 16H14.5321C14.7453 16 14.9498 15.9153 15.1006 15.7645C15.2514 15.6137 15.3361 15.4092 15.3361 15.196V1.44724C15.528 1.44724 15.7121 1.371 15.8478 1.23529C15.9835 1.09959 16.0597 0.915533 16.0597 0.723618C16.0597 0.531703 15.9835 0.347647 15.8478 0.211943C15.7121 0.076238 15.528 4.04432e-09 15.3361 0Z" fill="#CA2F28"/>
</svg>
