<svg width="17" height="16" viewBox="0 0 17 16" fill="none" xmlns="http://www.w3.org/2000/svg">
<path fill-rule="evenodd" clip-rule="evenodd" d="M12.9245 9.12884H11.2466L10.6508 11.2933C10.6049 11.4647 10.5034 11.616 10.3623 11.7235C10.2211 11.831 10.0483 11.8887 9.87088 11.8874C9.69352 11.8888 9.52075 11.8311 9.37972 11.7236C9.2387 11.616 9.13741 11.4647 9.09178 11.2933L8.10042 7.69286L7.10987 11.2933C7.06412 11.4646 6.9628 11.6159 6.8218 11.7234C6.6808 11.8309 6.5081 11.8886 6.33078 11.8874H6.32997C6.15265 11.8887 5.97991 11.8312 5.83879 11.7238C5.69767 11.6164 5.59613 11.4653 5.55007 11.2941L4.95429 9.12884H3.2763C3.10571 9.12884 2.94211 9.06108 2.82148 8.94045C2.70085 8.81982 2.63309 8.65622 2.63309 8.48563C2.63309 8.31504 2.70085 8.15143 2.82148 8.03081C2.94211 7.91018 3.10571 7.84241 3.2763 7.84241H4.59972L4.06505 5.89749C4.03964 5.81517 4.03103 5.72859 4.03973 5.64288C4.04842 5.55718 4.07425 5.47409 4.11567 5.39855C4.15709 5.32302 4.21326 5.25657 4.28084 5.20316C4.34843 5.14974 4.42606 5.11045 4.50913 5.08761C4.59219 5.06477 4.679 5.05885 4.76439 5.0702C4.84979 5.08155 4.93203 5.10993 5.00625 5.15367C5.08046 5.19741 5.14514 5.25562 5.19643 5.32483C5.24772 5.39404 5.28459 5.47285 5.30485 5.55658L6.32997 9.27839L7.32052 5.67799C7.36643 5.5066 7.46791 5.35529 7.60904 5.24777C7.75018 5.14024 7.923 5.08258 8.10042 5.08382C8.46866 5.08382 8.78223 5.32261 8.88032 5.67799L9.87088 9.27839L10.896 5.55658C10.9412 5.39207 11.0499 5.25225 11.1982 5.16789C11.2716 5.12612 11.3526 5.09921 11.4364 5.08872C11.5202 5.07823 11.6053 5.08435 11.6868 5.10673C11.7682 5.12912 11.8445 5.16733 11.9112 5.21918C11.9779 5.27103 12.0337 5.33552 12.0754 5.40894C12.1172 5.48237 12.1441 5.56331 12.1546 5.64713C12.1651 5.73096 12.159 5.81603 12.1366 5.89749L11.6011 7.84241H12.9245C13.009 7.84241 13.0927 7.85905 13.1707 7.89137C13.2487 7.9237 13.3196 7.97108 13.3794 8.03081C13.4391 8.09053 13.4865 8.16144 13.5188 8.23948C13.5511 8.31752 13.5678 8.40116 13.5678 8.48563C13.5678 8.5701 13.5511 8.65374 13.5188 8.73178C13.4865 8.80981 13.4391 8.88072 13.3794 8.94045C13.3196 9.00018 13.2487 9.04756 13.1707 9.07988C13.0927 9.11221 13.009 9.12884 12.9245 9.12884ZM15.3366 0H0.864243C0.672328 4.04432e-09 0.488273 0.076238 0.352568 0.211943C0.216863 0.347647 0.140625 0.531703 0.140625 0.723618C0.140625 0.915533 0.216863 1.09959 0.352568 1.23529C0.488273 1.371 0.672328 1.44724 0.864243 1.44724V15.196C0.864243 15.4092 0.948952 15.6137 1.09974 15.7645C1.25052 15.9153 1.45502 16 1.66826 16H14.5326C14.7458 16 14.9503 15.9153 15.1011 15.7645C15.2519 15.6137 15.3366 15.4092 15.3366 15.196V1.44724C15.5285 1.44724 15.7126 1.371 15.8483 1.23529C15.984 1.09959 16.0602 0.915533 16.0602 0.723618C16.0602 0.531703 15.984 0.347647 15.8483 0.211943C15.7126 0.076238 15.5285 4.04432e-09 15.3366 0Z" fill="#C8C8C8"/>
</svg>
