<svg width="17" height="16" viewBox="0 0 17 16" fill="none" xmlns="http://www.w3.org/2000/svg">
<path fill-rule="evenodd" clip-rule="evenodd" d="M15.842 5.46093L9.19002 0.171311C9.05085 0.0603975 8.87816 0 8.7002 0C8.52224 0 8.34955 0.0603975 8.21038 0.171311L1.5576 5.46093C1.37219 5.60841 1.22243 5.79582 1.11949 6.0092C1.01655 6.22259 0.963072 6.45644 0.963043 6.69336V14.11C0.963043 14.6113 1.16217 15.092 1.51661 15.4464C1.87105 15.8009 2.35178 16 2.85304 16H7.12521V12.2578C7.12521 12.049 7.20818 11.8487 7.35586 11.701C7.50354 11.5533 7.70385 11.4703 7.9127 11.4703H9.4877C9.69656 11.4703 9.89686 11.5533 10.0445 11.701C10.1922 11.8487 10.2752 12.049 10.2752 12.2578V16H14.5466C15.0478 16 15.5286 15.8009 15.883 15.4464C16.2374 15.092 16.4366 14.6113 16.4366 14.11V6.69415C16.4365 6.45723 16.3831 6.22337 16.2801 6.00999C16.1772 5.79661 16.0274 5.6092 15.842 5.46172" fill="#C8C8C8"/>
</svg>
