<svg width="17" height="16" viewBox="0 0 17 16" fill="none" xmlns="http://www.w3.org/2000/svg">
<path fill-rule="evenodd" clip-rule="evenodd" d="M15.8423 5.46093L9.19036 0.171311C9.05119 0.0603975 8.8785 0 8.70054 0C8.52258 0 8.34988 0.0603975 8.21071 0.171311L1.55794 5.46093C1.37252 5.60841 1.22277 5.79582 1.11983 6.0092C1.01688 6.22259 0.963407 6.45644 0.963379 6.69336V14.11C0.963379 14.6113 1.1625 15.092 1.51695 15.4464C1.87139 15.8009 2.35211 16 2.85337 16H7.12554V12.2578C7.12554 12.049 7.20851 11.8487 7.3562 11.701C7.50388 11.5533 7.70418 11.4703 7.91304 11.4703H9.48803C9.69689 11.4703 9.89719 11.5533 10.0449 11.701C10.1926 11.8487 10.2755 12.049 10.2755 12.2578V16H14.5469C15.0482 16 15.5289 15.8009 15.8833 15.4464C16.2378 15.092 16.4369 14.6113 16.4369 14.11V6.69415C16.4369 6.45723 16.3834 6.22337 16.2805 6.00999C16.1775 5.79661 16.0278 5.60841 15.8423 5.46093Z" fill="#CA2F28"/>
</svg>
