<svg width="16" height="16" viewBox="0 0 16 16" fill="none" xmlns="http://www.w3.org/2000/svg">
<path fill-rule="evenodd" clip-rule="evenodd" d="M12.1205 3.81963C12.1206 4.32128 12.0218 4.81804 11.8299 5.28152C11.638 5.74501 11.3566 6.16615 11.0019 6.52091C10.6472 6.87567 10.2262 7.15709 9.76271 7.34911C9.29926 7.54113 8.80253 7.63999 8.30088 7.64004C7.28775 7.64015 6.31607 7.23778 5.5996 6.52146C4.88314 5.80514 4.48057 4.83355 4.48047 3.82041C4.48042 3.31876 4.57918 2.82201 4.7711 2.35852C4.96303 1.89504 5.24437 1.47389 5.59905 1.11913C6.31537 0.402668 7.28697 0.000103506 8.3001 1.99572e-08C9.31323 -0.000103467 10.2849 0.402263 11.0014 1.11858C11.7178 1.8349 12.1204 2.8065 12.1205 3.81963ZM8.30049 8.80868C2.7995 8.80868 0.659668 12.3095 0.659668 13.9382C0.659668 15.5661 5.21482 16 8.30049 16C11.3862 16 15.9413 15.5661 15.9413 13.9382C15.9413 12.3095 13.8015 8.80868 8.30049 8.80868Z" fill="#C8C8C8"/>
</svg>
