<svg width="16" height="16" viewBox="0 0 16 16" fill="none" xmlns="http://www.w3.org/2000/svg">
<path fill-rule="evenodd" clip-rule="evenodd" d="M12.1201 3.81963C12.1202 4.32128 12.0214 4.81804 11.8295 5.28152C11.6376 5.74501 11.3562 6.16615 11.0016 6.52091C10.6469 6.87567 10.2258 7.15709 9.76234 7.34911C9.29889 7.54113 8.80216 7.63999 8.30051 7.64004C7.28737 7.64015 6.3157 7.23778 5.59923 6.52146C4.88276 5.80514 4.4802 4.83355 4.4801 3.82041C4.48004 3.31876 4.5788 2.82201 4.77073 2.35852C4.96266 1.89504 5.24399 1.47389 5.59868 1.11913C6.315 0.402668 7.28659 0.000103506 8.29973 1.99572e-08C9.31286 -0.000103467 10.2845 0.402263 11.001 1.11858C11.7175 1.8349 12.12 2.8065 12.1201 3.81963ZM8.30012 8.80868C2.79913 8.80868 0.659294 12.3095 0.659294 13.9382C0.659294 15.5661 5.21444 16 8.30012 16C11.3858 16 15.9409 15.5661 15.9409 13.9382C15.9409 12.3095 13.8011 8.80868 8.30012 8.80868Z" fill="#CA2F28"/>
</svg>
